<svg width="39" height="39" viewBox="0 0 39 39" fill="none" xmlns="http://www.w3.org/2000/svg">
<path d="M37.8878 27.5588L29.3564 23.9025C28.9919 23.7471 28.5869 23.7144 28.2022 23.8092C27.8176 23.904 27.4741 24.1212 27.2235 24.4281L23.4453 29.0442C17.5158 26.2484 12.7439 21.4765 9.94822 15.547L14.5643 11.7688C14.8718 11.5187 15.0894 11.1753 15.1843 10.7904C15.2791 10.4056 15.246 10.0003 15.0899 9.63598L11.4336 1.10458C11.2623 0.71184 10.9593 0.391179 10.5769 0.197892C10.1945 0.00460479 9.75665 -0.049193 9.33883 0.045775L1.41682 1.87393C1.01399 1.96695 0.654591 2.19377 0.39727 2.51736C0.139949 2.84094 -9.2795e-05 3.2422 4.61321e-08 3.65562C4.61321e-08 23.1941 15.8364 39 35.3444 39C35.7579 39.0003 36.1594 38.8603 36.4831 38.603C36.8068 38.3456 37.0338 37.9861 37.1268 37.5832L38.955 29.6612C39.0493 29.2413 38.9944 28.8017 38.7996 28.418C38.6048 28.0343 38.2824 27.7304 37.8878 27.5588Z" fill="#FCF7EE"/>
</svg>
