<svg width="26" height="26" viewBox="0 0 26 26" fill="none" xmlns="http://www.w3.org/2000/svg">
<path d="M25.2581 18.3726L19.5706 15.9351C19.3276 15.8316 19.0576 15.8098 18.8012 15.873C18.5447 15.9362 18.3157 16.0809 18.1487 16.2855L15.63 19.3629C11.677 17.4991 8.49581 14.3179 6.63203 10.3649L9.70937 7.84619C9.91437 7.67947 10.0595 7.45049 10.1227 7.19393C10.1859 6.93737 10.1638 6.6672 10.0598 6.42432L7.62227 0.736818C7.50807 0.474994 7.30609 0.261224 7.05116 0.132368C6.79622 0.00351231 6.50432 -0.0323523 6.22578 0.0309586L0.944531 1.24971C0.675984 1.31172 0.436386 1.46293 0.264842 1.67865C0.093298 1.89437 -6.18622e-05 2.16187 3.07542e-08 2.43748C3.07542e-08 15.4629 10.5574 26 23.5625 26C23.8382 26.0002 24.1058 25.9069 24.3216 25.7353C24.5375 25.5637 24.6887 25.3241 24.7508 25.0555L25.9695 19.7742C26.0324 19.4943 25.9958 19.2012 25.866 18.9454C25.7361 18.6896 25.5212 18.4871 25.2581 18.3726Z" fill="white"/>
</svg>
