<svg width="23" height="22" viewBox="0 0 23 22" fill="none" xmlns="http://www.w3.org/2000/svg">
<path d="M19.7776 0H2.4411C1.81411 0 1.2128 0.24693 0.769448 0.686469C0.326098 1.12601 0.0770264 1.72215 0.0770264 2.34375L0.0770264 19.5312C0.0770264 20.1529 0.326098 20.749 0.769448 21.1885C1.2128 21.6281 1.81411 21.875 2.4411 21.875H9.20088V14.438H6.09803V10.9375H9.20088V8.26953C9.20088 5.23486 11.0232 3.55859 13.8143 3.55859C15.151 3.55859 16.5487 3.79492 16.5487 3.79492V6.77344H15.0086C13.4912 6.77344 13.0179 7.70703 13.0179 8.66455V10.9375H16.4054L15.8636 14.438H13.0179V21.875H19.7776C20.4046 21.875 21.006 21.6281 21.4493 21.1885C21.8927 20.749 22.1417 20.1529 22.1417 19.5312V2.34375C22.1417 1.72215 21.8927 1.12601 21.4493 0.686469C21.006 0.24693 20.4046 0 19.7776 0Z" fill="white"/>
</svg>
