<svg width="23" height="22" viewBox="0 0 23 22" fill="none" xmlns="http://www.w3.org/2000/svg">
<path d="M11.041 5.33081C7.90857 5.33081 5.38196 7.83569 5.38196 10.9412C5.38196 14.0466 7.90857 16.5515 11.041 16.5515C14.1734 16.5515 16.7 14.0466 16.7 10.9412C16.7 7.83569 14.1734 5.33081 11.041 5.33081ZM11.041 14.5886C9.01673 14.5886 7.36188 12.9529 7.36188 10.9412C7.36188 8.92944 9.0118 7.2937 11.041 7.2937C13.0701 7.2937 14.7201 8.92944 14.7201 10.9412C14.7201 12.9529 13.0652 14.5886 11.041 14.5886ZM18.2514 5.10132C18.2514 5.82886 17.6604 6.40991 16.9315 6.40991C16.1976 6.40991 15.6115 5.82397 15.6115 5.10132C15.6115 4.37866 16.2025 3.79272 16.9315 3.79272C17.6604 3.79272 18.2514 4.37866 18.2514 5.10132ZM21.9994 6.42944C21.9157 4.67651 21.5119 3.12378 20.2165 1.84448C18.9261 0.565185 17.3599 0.164795 15.5918 0.0769043C13.7695 -0.0256348 8.30751 -0.0256348 6.4852 0.0769043C4.72199 0.159912 3.15579 0.560303 1.86048 1.8396C0.565162 3.1189 0.166224 4.67163 0.0775712 6.42456C-0.0258571 8.2312 -0.0258571 13.6462 0.0775712 15.4529C0.161299 17.2058 0.565162 18.7585 1.86048 20.0378C3.15579 21.3171 4.71707 21.7175 6.4852 21.8054C8.30751 21.908 13.7695 21.908 15.5918 21.8054C17.3599 21.7224 18.9261 21.322 20.2165 20.0378C21.5069 18.7585 21.9108 17.2058 21.9994 15.4529C22.1029 13.6462 22.1029 8.23608 21.9994 6.42944ZM19.6452 17.3914C19.2611 18.3484 18.5174 19.0857 17.5471 19.4714C16.0942 20.0427 12.6466 19.9109 11.041 19.9109C9.43537 19.9109 5.98283 20.0378 4.53484 19.4714C3.56951 19.0906 2.82581 18.3533 2.43672 17.3914C1.86048 15.9509 1.99346 12.533 1.99346 10.9412C1.99346 9.34937 1.8654 5.92651 2.43672 4.49097C2.82088 3.53394 3.56458 2.79663 4.53484 2.41089C5.98776 1.8396 9.43537 1.97144 11.041 1.97144C12.6466 1.97144 16.0991 1.84448 17.5471 2.41089C18.5124 2.79175 19.2561 3.52905 19.6452 4.49097C20.2215 5.9314 20.0885 9.34937 20.0885 10.9412C20.0885 12.533 20.2215 15.9558 19.6452 17.3914Z" fill="white"/>
</svg>
