<svg width="31" height="42" viewBox="0 0 31 42" fill="none" xmlns="http://www.w3.org/2000/svg">
<path d="M13.9071 41.1526C2.17727 23.8736 0 22.1003 0 15.75C0 7.05149 6.93956 0 15.5 0C24.0604 0 31 7.05149 31 15.75C31 22.1003 28.8227 23.8736 17.0929 41.1526C16.3232 42.2825 14.6767 42.2824 13.9071 41.1526ZM15.5 22.3125C19.0669 22.3125 21.9583 19.3744 21.9583 15.75C21.9583 12.1256 19.0669 9.1875 15.5 9.1875C11.9331 9.1875 9.04167 12.1256 9.04167 15.75C9.04167 19.3744 11.9331 22.3125 15.5 22.3125Z" fill="#FCF7EE"/>
</svg>
