<svg width="79" height="69" viewBox="0 0 79 69" fill="none" xmlns="http://www.w3.org/2000/svg">
<path d="M40.7561 4.17618C40.9246 4.24589 41.0932 4.31561 41.2669 4.38743C41.8733 4.63985 42.4775 4.89722 43.0816 5.15517C43.4453 5.3095 43.809 5.46383 44.1726 5.61815C45.4665 6.16763 46.7588 6.72083 48.0507 7.27502C50.222 8.20625 52.3973 9.1284 54.5727 10.0501C54.9675 10.2174 55.3622 10.3847 55.757 10.552C56.5606 10.8926 57.3641 11.2331 58.1677 11.5736C60.0441 12.3686 61.9204 13.1638 63.7966 13.9593C64.5589 14.2824 65.3212 14.6054 66.0836 14.9283C66.4414 15.0801 66.7991 15.2326 67.1564 15.3856C68.0668 15.7748 68.9797 16.1532 69.9009 16.5162C70.0892 16.5922 70.2776 16.6681 70.4716 16.7463C70.827 16.8894 71.1837 17.0292 71.542 17.1649C72.7695 17.6654 73.5693 18.3364 74.3214 19.431C74.7046 20.5765 74.6999 21.7727 74.1846 22.8761C73.4664 24.2604 72.0213 24.738 70.6597 25.3026C70.452 25.3903 70.2443 25.4779 70.0303 25.5682C69.343 25.8578 68.6547 26.1452 67.9665 26.4326C67.4813 26.6367 66.9961 26.8409 66.5111 27.0453C65.6299 27.4165 64.7485 27.7872 63.8669 28.1572C61.6656 29.0812 59.4683 30.0144 57.2713 30.9484C56.1691 31.4168 55.0666 31.8845 53.9641 32.3523C52.301 33.0581 50.6379 33.7642 48.975 34.4705C48.0984 34.8428 47.2218 35.2151 46.3451 35.5873C45.7457 35.8419 45.1462 36.0965 44.5468 36.3512C43.8862 36.6319 43.2255 36.9124 42.5647 37.193C42.2711 37.3178 42.2711 37.3178 41.9715 37.4452C41.7907 37.5219 41.6099 37.5986 41.4237 37.6777C41.2674 37.7441 41.1111 37.8104 40.9501 37.8788C39.1033 38.6501 37.6924 38.7425 35.7965 38.0082C34.9185 37.6466 34.0504 37.264 33.1824 36.8793C32.7898 36.7092 32.397 36.5395 32.004 36.3703C31.1614 36.0067 30.3199 35.6408 29.479 35.2733C28.1456 34.6915 26.8081 34.119 25.4696 33.5489C25.2431 33.4524 25.0166 33.3559 24.7832 33.2565C24.3211 33.0597 23.8589 32.8629 23.3967 32.6661C22.4617 32.2675 21.5273 31.8677 20.5928 31.4678C18.3999 30.5295 16.2053 29.595 14.0088 28.6648C13.7615 28.56 13.5142 28.4552 13.2669 28.3505C12.0954 27.8543 10.9238 27.3585 9.75181 26.8635C8.75615 26.4425 7.76151 26.0192 6.76815 25.5929C6.45547 25.4587 6.14258 25.325 5.82939 25.1921C5.46415 25.0365 5.10042 24.8773 4.73686 24.7179C4.55197 24.6375 4.36708 24.5572 4.17659 24.4744C3.16736 23.8914 2.48383 23.0982 2.09183 22.0086C1.9506 20.8269 1.98309 19.8343 2.68877 18.8362C3.70043 17.7802 4.85071 17.2403 6.19034 16.6931C6.50115 16.5625 6.50115 16.5625 6.81824 16.4292C7.50105 16.1428 8.18529 15.86 8.86957 15.577C9.35199 15.3753 9.8343 15.1734 10.3165 14.9711C11.1927 14.6038 12.0693 14.2372 12.9463 13.8717C15.175 12.9427 17.3969 11.9981 19.6186 11.0527C20.7274 10.5811 21.8366 10.1109 22.9458 9.64038C24.4892 8.98557 26.0323 8.32996 27.5749 7.67336C28.4324 7.30845 29.29 6.94389 30.1476 6.57937C30.5474 6.40931 30.9472 6.23909 31.3469 6.06869C32.3907 5.62375 33.4353 5.18113 34.4826 4.74446C34.7641 4.62688 35.0454 4.50859 35.3262 4.38939C37.3838 3.51914 38.6802 3.28553 40.7561 4.17618Z" fill="#8FB0A1"/>
<path d="M9.52871 32.3313C9.91617 32.5072 10.3044 32.6812 10.6927 32.8551C10.9827 32.9851 11.2724 33.1156 11.5618 33.2465C13.5018 34.1218 15.4648 34.9439 17.4253 35.7722C18.3474 36.1619 19.2689 36.5528 20.1904 36.9436C20.9027 37.2457 21.615 37.5477 22.3273 37.8496C24.5268 38.7817 26.7261 39.7141 28.9253 40.6469C29.607 40.9361 30.2889 41.225 30.9707 41.5139C31.1836 41.6042 31.3965 41.6945 31.6159 41.7876C32.0268 41.9618 32.4377 42.1358 32.8488 42.3096C33.7352 42.6852 34.6187 43.0649 35.495 43.4634C35.641 43.5294 35.7871 43.5953 35.9376 43.6632C36.3154 43.8347 36.692 44.0089 37.0684 44.1834C38.6149 44.7395 39.6847 44.1436 41.1097 43.5068C41.3253 43.4126 41.5408 43.3184 41.7629 43.2214C42.2246 43.0194 42.6858 42.8164 43.1467 42.6125C43.8713 42.292 44.597 41.9738 45.3231 41.6566C46.0452 41.3411 46.7673 41.0255 47.489 40.7092C49.18 39.9684 50.8765 39.2446 52.5829 38.5399C55.2692 37.4273 57.9434 36.2874 60.6167 35.1444C60.8221 35.0566 61.0275 34.9688 61.2391 34.8783C61.6425 34.7057 62.0459 34.5332 62.4493 34.3606C62.8431 34.1922 63.2369 34.024 63.6309 33.856C64.6048 33.4405 65.5765 33.0209 66.5452 32.5933C66.734 32.5107 66.9229 32.428 67.1175 32.3429C67.4726 32.1873 67.827 32.0304 68.1807 31.8717C69.7204 31.2006 71.0015 31.0236 72.6177 31.5506C73.5243 32.2117 74.2325 33.0081 74.5204 34.1034C74.6417 35.3324 74.4776 36.2706 73.7245 37.2758C72.917 38.0069 72.1955 38.4696 71.1813 38.8977C70.983 38.9824 70.983 38.9824 70.7807 39.0688C70.3368 39.258 69.8916 39.4441 69.4464 39.6304C69.1226 39.7676 68.7989 39.9051 68.4752 40.0428C67.7617 40.3457 67.0478 40.6474 66.3334 40.9483C65.1109 41.4634 63.8901 41.9822 62.6695 42.5015C60.8649 43.2689 59.0598 44.0351 57.2543 44.8003C54.6141 45.9191 51.9744 47.0388 49.3349 48.159C48.6634 48.444 47.992 48.7288 47.3205 49.0137C47.1102 49.103 46.8998 49.1923 46.6831 49.2844C46.2717 49.4588 45.86 49.6327 45.4481 49.806C44.467 50.2198 43.4923 50.6426 42.5252 51.088C38.6737 52.8467 38.6737 52.8467 36.4518 52.1325C35.8131 51.8854 35.1924 51.6201 34.5705 51.3347C34.1362 51.1353 33.6997 50.9414 33.2625 50.7485C32.7734 50.5328 32.2845 50.3168 31.7963 50.0992C29.7019 49.1668 27.5886 48.279 25.4768 47.3869C24.3108 46.8941 23.1457 46.3994 21.9805 45.9047C21.756 45.8094 21.5315 45.7142 21.3001 45.616C19.1882 44.7195 17.0768 43.8217 14.9686 42.9167C13.5775 42.3199 12.1843 41.7286 10.7871 41.146C10.0168 40.8245 9.24729 40.501 8.47787 40.1773C8.10522 40.0211 7.73219 39.8659 7.35876 39.7116C6.83847 39.4966 6.31962 39.2784 5.80095 39.0596C5.64748 38.9971 5.494 38.9346 5.33588 38.8702C4.04755 38.3205 3.01047 37.6359 2.30326 36.4084C1.9615 35.2465 1.92014 34.3712 2.41519 33.2732C4.00996 30.4003 7.03682 31.1557 9.52871 32.3313Z" fill="#8FB0A1"/>
<path d="M10.2376 46.5329C10.5108 46.6491 10.7842 46.7652 11.0575 46.8811C11.7755 47.1861 12.4926 47.4933 13.2093 47.8011C13.8749 48.0867 14.5412 48.3704 15.2074 48.6543C16.0308 49.0053 16.8541 49.3566 17.677 49.7089C19.5159 50.4959 21.3559 51.2802 23.1969 52.0621C23.4247 52.1589 23.6525 52.2556 23.8872 52.3553C25.0552 52.8513 26.2235 53.3466 27.3922 53.8411C29.4146 54.697 31.4356 55.5551 33.4482 56.4335C33.9005 56.6296 34.3529 56.8255 34.8053 57.0212C35.0796 57.1406 35.3534 57.2611 35.6266 57.3827C35.9942 57.5463 36.3636 57.706 36.733 57.8656C36.9334 57.9539 37.1339 58.0422 37.3404 58.1332C38.5945 58.4864 39.6948 57.8872 40.8346 57.3978C41.0049 57.3258 41.1752 57.2539 41.3507 57.1798C41.9158 56.9408 42.4801 56.7 43.0443 56.4591C43.4462 56.2886 43.848 56.1183 44.2499 55.9481C45.5195 55.4098 46.7879 54.8688 48.0561 54.3276C48.457 54.1567 48.8579 53.9858 49.2588 53.8149C51.2544 52.9639 53.2494 52.1116 55.2443 51.259C55.4485 51.1717 55.6528 51.0844 55.8633 50.9944C56.8697 50.5642 57.8761 50.1339 58.8823 49.703C60.2365 49.1232 61.5912 48.5445 62.9463 47.9667C63.42 47.7646 63.8934 47.562 64.3667 47.3591C65.0271 47.076 65.688 46.7942 66.349 46.5127C66.5428 46.4293 66.7366 46.3458 66.9363 46.2598C70.6766 44.6736 70.6766 44.6736 72.5306 45.4052C73.5922 46.0335 74.1701 46.7916 74.5204 47.9828C74.6572 49.2094 74.476 50.1521 73.7245 51.1552C72.7394 52.0936 71.6928 52.5656 70.4413 53.0806C70.2338 53.168 70.0262 53.2554 69.8124 53.3455C69.1274 53.6334 68.4413 53.9185 67.7551 54.2037C67.2728 54.4059 66.7906 54.6083 66.3085 54.811C65.4315 55.1795 64.5542 55.5475 63.6765 55.9145C61.4186 56.859 59.1664 57.8165 56.9142 58.7744C55.7993 59.2485 54.6839 59.7214 53.5685 60.1945C52.1432 60.7992 50.7181 61.4043 49.2934 62.0104C48.575 62.3159 47.8563 62.6212 47.1377 62.9263C46.8143 63.0637 46.491 63.2013 46.1678 63.339C45.2937 63.7114 44.4185 64.0807 43.5413 64.4458C43.2163 64.5816 42.8918 64.7186 42.5676 64.8564C42.0359 65.082 41.5027 65.3037 40.969 65.5248C40.7249 65.6296 40.7249 65.6296 40.4759 65.7365C39.3043 66.2156 38.3384 66.4113 37.0747 66.1257C36.9607 66.0782 36.8466 66.0307 36.7291 65.9817C36.591 65.9257 36.4529 65.8696 36.3107 65.8119C36.1607 65.7476 36.0107 65.6832 35.8562 65.6169C35.6876 65.5472 35.5191 65.4775 35.3454 65.4057C34.7389 65.1532 34.1347 64.8959 33.5306 64.6379C33.167 64.4836 32.8033 64.3293 32.4396 64.175C31.1457 63.6255 29.8535 63.0723 28.5616 62.5181C26.3902 61.5868 24.215 60.6647 22.0396 59.743C21.6448 59.5757 21.25 59.4084 20.8552 59.2411C20.0517 58.9005 19.2481 58.56 18.4445 58.2195C16.5681 57.4245 14.6919 56.6293 12.8156 55.8338C12.0534 55.5107 11.291 55.1876 10.5286 54.8648C10.171 54.713 9.8135 54.5607 9.45626 54.4079C8.54297 54.0178 7.62717 53.6371 6.70433 53.2699C6.51512 53.1931 6.32591 53.1163 6.13096 53.0371C5.77281 52.8919 5.41346 52.7495 5.05274 52.6107C3.71749 52.0633 2.92475 51.3286 2.21622 50.077C1.9083 48.8191 2.00817 47.8768 2.63672 46.7583C3.19257 45.9574 3.82836 45.5168 4.72833 45.1202C6.67571 44.8291 8.48958 45.7785 10.2376 46.5329Z" fill="#8FB0A1"/>
</svg>
