<svg width="75" height="74" viewBox="0 0 75 74" fill="none" xmlns="http://www.w3.org/2000/svg">
<path d="M37.5 0C17.0605 0 0.5 16.5605 0.5 37C0.5 57.4395 17.0605 74 37.5 74C57.9395 74 74.5 57.4395 74.5 37C74.5 16.5605 57.9395 0 37.5 0ZM49.4355 25.0645C52.0762 25.0645 54.2097 27.198 54.2097 29.8387C54.2097 32.4794 52.0762 34.6129 49.4355 34.6129C46.7948 34.6129 44.6613 32.4794 44.6613 29.8387C44.6613 27.198 46.7948 25.0645 49.4355 25.0645ZM25.5645 25.0645C28.2052 25.0645 30.3387 27.198 30.3387 29.8387C30.3387 32.4794 28.2052 34.6129 25.5645 34.6129C22.9238 34.6129 20.7903 32.4794 20.7903 29.8387C20.7903 27.198 22.9238 25.0645 25.5645 25.0645ZM54.6274 50.4573C50.3754 55.5597 44.1391 58.4839 37.5 58.4839C30.8609 58.4839 24.6246 55.5597 20.3726 50.4573C18.3435 48.0254 22.0137 44.9819 24.0427 47.3988C27.3847 51.4121 32.2782 53.6948 37.5 53.6948C42.7218 53.6948 47.6153 51.3972 50.9573 47.3988C52.9565 44.9819 56.6415 48.0254 54.6274 50.4573Z" fill="#8FB0A1"/>
</svg>
