<svg width="23" height="22" viewBox="0 0 23 22" fill="none" xmlns="http://www.w3.org/2000/svg">
<path d="M18.9016 3.17871C16.838 1.12793 14.0898 0 11.1691 0C5.14076 0 0.235302 4.86328 0.235302 10.8398C0.235302 12.749 0.737668 14.6143 1.69315 16.2598L0.141724 21.875L5.93863 20.3662C7.53438 21.2305 9.33206 21.6846 11.1642 21.6846H11.1691C17.1926 21.6846 22.2064 16.8213 22.2064 10.8447C22.2064 7.94922 20.9653 5.22949 18.9016 3.17871ZM11.1691 19.8584C9.53399 19.8584 7.93332 19.4238 6.5395 18.6035L6.20952 18.4082L2.77176 19.3018L3.68784 15.9766L3.47113 15.6348C2.55997 14.1992 2.08223 12.5439 2.08223 10.8398C2.08223 5.87402 6.16026 1.83105 11.1741 1.83105C13.6022 1.83105 15.8825 2.76855 17.5965 4.47266C19.3104 6.17676 20.3644 8.4375 20.3595 10.8447C20.3595 15.8154 16.178 19.8584 11.1691 19.8584ZM16.1534 13.1104C15.8825 12.9736 14.538 12.3193 14.2868 12.2314C14.0356 12.1387 13.8534 12.0947 13.6711 12.3682C13.4889 12.6416 12.9668 13.2471 12.8043 13.4326C12.6467 13.6133 12.4842 13.6377 12.2133 13.501C10.6077 12.7051 9.5537 12.0801 8.49479 10.2783C8.21405 9.7998 8.77552 9.83398 9.29759 8.79883C9.38624 8.61816 9.34191 8.46191 9.27296 8.3252C9.20401 8.18848 8.65732 6.85547 8.43076 6.31348C8.20913 5.78613 7.98257 5.85938 7.81512 5.84961C7.65751 5.83984 7.47528 5.83984 7.29305 5.83984C7.11082 5.83984 6.81531 5.9082 6.56413 6.17676C6.31294 6.4502 5.60865 7.10449 5.60865 8.4375C5.60865 9.77051 6.58875 11.0596 6.72173 11.2402C6.85964 11.4209 8.64747 14.1553 11.3908 15.332C13.1244 16.0742 13.8041 16.1377 14.6709 16.0107C15.1979 15.9326 16.2864 15.3564 16.5129 14.7217C16.7395 14.0869 16.7395 13.5449 16.6705 13.4326C16.6065 13.3105 16.4243 13.2422 16.1534 13.1104Z" fill="white"/>
</svg>
